<svg xmlns="http://www.w3.org/2000/svg" viewBox="0 0 600 400" fill="none">
  <defs>
    <linearGradient id="hero-bg" x1="0" y1="0" x2="600" y2="200" gradientUnits="userSpaceOnUse">
      <stop offset="0%" stop-color="#1e3a5f"/>
      <stop offset="100%" stop-color="#2563EB"/>
    </linearGradient>
    <filter id="card-shadow" x="-4%" y="-4%" width="108%" height="116%">
      <feDropShadow dx="0" dy="2" stdDeviation="4" flood-color="#000" flood-opacity="0.1"/>
    </filter>
  </defs>

  <!-- Browser frame -->
  <rect width="600" height="400" rx="12" fill="#ffffff" stroke="#e2e8f0" stroke-width="1"/>

  <!-- Browser top bar -->
  <rect width="600" height="28" rx="12" fill="#f1f5f9"/>
  <rect x="0" y="12" width="600" height="16" fill="#f1f5f9"/>
  <circle cx="18" cy="14" r="5" fill="#ef4444" opacity="0.7"/>
  <circle cx="34" cy="14" r="5" fill="#f59e0b" opacity="0.7"/>
  <circle cx="50" cy="14" r="5" fill="#10b981" opacity="0.7"/>
  <!-- URL bar -->
  <rect x="120" y="7" width="360" height="14" rx="7" fill="#ffffff" stroke="#e2e8f0" stroke-width="0.5"/>
  <text x="200" y="17" font-family="system-ui,sans-serif" font-size="7" fill="#94a3b8">www.dealership.com</text>

  <!-- Navigation bar -->
  <rect x="0" y="28" width="600" height="26" fill="#ffffff"/>
  <line x1="0" y1="54" x2="600" y2="54" stroke="#e2e8f0" stroke-width="0.5"/>
  <!-- Logo -->
  <rect x="16" y="33" width="16" height="16" rx="3" fill="#2563EB"/>
  <text x="22" y="44" text-anchor="middle" font-family="system-ui,sans-serif" font-size="8" font-weight="700" fill="white">D</text>
  <text x="38" y="45" font-family="system-ui,sans-serif" font-size="8" font-weight="700" fill="#1e293b">LOGO</text>
  <!-- Nav links -->
  <text x="120" y="45" font-family="system-ui,sans-serif" font-size="7" font-weight="500" fill="#1e293b">Home</text>
  <text x="160" y="45" font-family="system-ui,sans-serif" font-size="7" font-weight="500" fill="#64748b">Inventory</text>
  <text x="210" y="45" font-family="system-ui,sans-serif" font-size="7" font-weight="500" fill="#64748b">Financing</text>
  <text x="260" y="45" font-family="system-ui,sans-serif" font-size="7" font-weight="500" fill="#64748b">About Us</text>
  <text x="310" y="45" font-family="system-ui,sans-serif" font-size="7" font-weight="500" fill="#64748b">Contact</text>
  <!-- Phone -->
  <text x="520" y="45" font-family="system-ui,sans-serif" font-size="7" font-weight="600" fill="#2563EB">(555) 123-4567</text>

  <!-- Hero section -->
  <rect x="0" y="54" width="600" height="120" fill="url(#hero-bg)"/>
  <!-- Hero text -->
  <text x="30" y="85" font-family="system-ui,sans-serif" font-size="18" font-weight="700" fill="white">Find Your Next Car</text>

  <!-- Search filters row -->
  <rect x="30" y="96" width="72" height="18" rx="4" fill="rgba(255,255,255,0.15)" stroke="rgba(255,255,255,0.3)" stroke-width="0.5"/>
  <text x="42" y="108" font-family="system-ui,sans-serif" font-size="6.5" fill="rgba(255,255,255,0.8)">Condition</text>
  <text x="92" y="108" font-family="system-ui,sans-serif" font-size="7" fill="rgba(255,255,255,0.5)">&#9662;</text>

  <rect x="108" y="96" width="60" height="18" rx="4" fill="rgba(255,255,255,0.15)" stroke="rgba(255,255,255,0.3)" stroke-width="0.5"/>
  <text x="120" y="108" font-family="system-ui,sans-serif" font-size="6.5" fill="rgba(255,255,255,0.8)">Make</text>
  <text x="158" y="108" font-family="system-ui,sans-serif" font-size="7" fill="rgba(255,255,255,0.5)">&#9662;</text>

  <rect x="174" y="96" width="60" height="18" rx="4" fill="rgba(255,255,255,0.15)" stroke="rgba(255,255,255,0.3)" stroke-width="0.5"/>
  <text x="186" y="108" font-family="system-ui,sans-serif" font-size="6.5" fill="rgba(255,255,255,0.8)">Model</text>
  <text x="224" y="108" font-family="system-ui,sans-serif" font-size="7" fill="rgba(255,255,255,0.5)">&#9662;</text>

  <rect x="240" y="96" width="60" height="18" rx="4" fill="rgba(255,255,255,0.15)" stroke="rgba(255,255,255,0.3)" stroke-width="0.5"/>
  <text x="252" y="108" font-family="system-ui,sans-serif" font-size="6.5" fill="rgba(255,255,255,0.8)">Min Year</text>
  <text x="290" y="108" font-family="system-ui,sans-serif" font-size="7" fill="rgba(255,255,255,0.5)">&#9662;</text>

  <rect x="306" y="96" width="60" height="18" rx="4" fill="#2563EB" stroke="rgba(255,255,255,0.4)" stroke-width="0.5"/>
  <text x="322" y="108" font-family="system-ui,sans-serif" font-size="7" font-weight="600" fill="white">Search</text>

  <text x="30" y="128" font-family="system-ui,sans-serif" font-size="7" fill="rgba(255,255,255,0.6)">Advanced Search &#8594;</text>

  <!-- Car illustration in hero -->
  <g transform="translate(420, 72)">
    <!-- SUV body -->
    <path d="M10 48 L30 20 L60 12 L120 12 L140 28 L155 28 L155 48 Z" fill="rgba(255,255,255,0.2)" stroke="rgba(255,255,255,0.4)" stroke-width="1"/>
    <!-- Windows -->
    <path d="M34 22 L55 14 L90 14 L90 28 L34 28 Z" fill="rgba(100,180,255,0.3)"/>
    <path d="M94 14 L118 14 L132 28 L94 28 Z" fill="rgba(100,180,255,0.3)"/>
    <!-- Wheels -->
    <circle cx="48" cy="50" r="10" fill="#1e293b" stroke="rgba(255,255,255,0.3)" stroke-width="1"/>
    <circle cx="48" cy="50" r="5" fill="rgba(255,255,255,0.15)"/>
    <circle cx="128" cy="50" r="10" fill="#1e293b" stroke="rgba(255,255,255,0.3)" stroke-width="1"/>
    <circle cx="128" cy="50" r="5" fill="rgba(255,255,255,0.15)"/>
    <!-- Headlight -->
    <rect x="150" y="32" width="5" height="8" rx="2" fill="#fbbf24" opacity="0.6"/>
  </g>

  <!-- Featured Inventory section -->
  <rect x="0" y="174" width="600" height="14" fill="#ffffff"/>
  <text x="30" y="184" font-family="system-ui,sans-serif" font-size="9" font-weight="700" fill="#1e293b">Featured Inventory</text>
  <text x="530" y="184" font-family="system-ui,sans-serif" font-size="7" fill="#2563EB">View All &#8594;</text>

  <!-- Car card 1 -->
  <rect x="30" y="192" width="168" height="118" rx="8" fill="#ffffff" stroke="#e2e8f0" stroke-width="0.5" filter="url(#card-shadow)"/>
  <rect x="30" y="192" width="168" height="52" rx="8" fill="#f1f5f9"/>
  <rect x="30" y="236" width="168" height="8" fill="#f1f5f9"/>
  <g transform="translate(75, 200)">
    <path d="M10 32 L20 14 L55 10 L70 18 L78 18 L78 32 Z" fill="#cbd5e1" stroke="#94a3b8" stroke-width="0.5"/>
    <circle cx="26" cy="34" r="5" fill="#94a3b8"/>
    <circle cx="64" cy="34" r="5" fill="#94a3b8"/>
  </g>
  <rect x="36" y="198" width="36" height="11" rx="3" fill="#10b981"/>
  <text x="54" y="206" text-anchor="middle" font-family="system-ui,sans-serif" font-size="5.5" font-weight="600" fill="white">Certified</text>
  <text x="38" y="256" font-family="system-ui,sans-serif" font-size="7" font-weight="600" fill="#1e293b">2019 Placeholder Title</text>
  <text x="38" y="267" font-family="system-ui,sans-serif" font-size="9" font-weight="700" fill="#2563EB">$24,995</text>
  <text x="38" y="278" font-family="system-ui,sans-serif" font-size="5.5" fill="#94a3b8">Automatic · 42,000 mi · Gas</text>
  <rect x="38" y="284" width="68" height="16" rx="4" fill="#2563EB"/>
  <text x="72" y="295" text-anchor="middle" font-family="system-ui,sans-serif" font-size="6.5" font-weight="600" fill="white">View Details</text>

  <!-- Car card 2 -->
  <rect x="216" y="192" width="168" height="118" rx="8" fill="#ffffff" stroke="#e2e8f0" stroke-width="0.5" filter="url(#card-shadow)"/>
  <rect x="216" y="192" width="168" height="52" rx="8" fill="#f1f5f9"/>
  <rect x="216" y="236" width="168" height="8" fill="#f1f5f9"/>
  <g transform="translate(261, 200)">
    <path d="M10 32 L20 14 L55 10 L70 18 L78 18 L78 32 Z" fill="#cbd5e1" stroke="#94a3b8" stroke-width="0.5"/>
    <circle cx="26" cy="34" r="5" fill="#94a3b8"/>
    <circle cx="64" cy="34" r="5" fill="#94a3b8"/>
  </g>
  <rect x="222" y="198" width="36" height="11" rx="3" fill="#10b981"/>
  <text x="240" y="206" text-anchor="middle" font-family="system-ui,sans-serif" font-size="5.5" font-weight="600" fill="white">Certified</text>
  <text x="224" y="256" font-family="system-ui,sans-serif" font-size="7" font-weight="600" fill="#1e293b">2019 Placeholder Title</text>
  <text x="224" y="267" font-family="system-ui,sans-serif" font-size="9" font-weight="700" fill="#2563EB">$24,995</text>
  <text x="224" y="278" font-family="system-ui,sans-serif" font-size="5.5" fill="#94a3b8">Automatic · 42,000 mi · Gas</text>
  <rect x="224" y="284" width="68" height="16" rx="4" fill="#2563EB"/>
  <text x="258" y="295" text-anchor="middle" font-family="system-ui,sans-serif" font-size="6.5" font-weight="600" fill="white">View Details</text>

  <!-- Car card 3 -->
  <rect x="402" y="192" width="168" height="118" rx="8" fill="#ffffff" stroke="#e2e8f0" stroke-width="0.5" filter="url(#card-shadow)"/>
  <rect x="402" y="192" width="168" height="52" rx="8" fill="#f1f5f9"/>
  <rect x="402" y="236" width="168" height="8" fill="#f1f5f9"/>
  <g transform="translate(447, 200)">
    <path d="M10 32 L20 14 L55 10 L70 18 L78 18 L78 32 Z" fill="#cbd5e1" stroke="#94a3b8" stroke-width="0.5"/>
    <circle cx="26" cy="34" r="5" fill="#94a3b8"/>
    <circle cx="64" cy="34" r="5" fill="#94a3b8"/>
  </g>
  <rect x="408" y="198" width="36" height="11" rx="3" fill="#10b981"/>
  <text x="426" y="206" text-anchor="middle" font-family="system-ui,sans-serif" font-size="5.5" font-weight="600" fill="white">Certified</text>
  <text x="410" y="256" font-family="system-ui,sans-serif" font-size="7" font-weight="600" fill="#1e293b">2019 Placeholder Title</text>
  <text x="410" y="267" font-family="system-ui,sans-serif" font-size="9" font-weight="700" fill="#2563EB">$24,995</text>
  <text x="410" y="278" font-family="system-ui,sans-serif" font-size="5.5" fill="#94a3b8">Automatic · 42,000 mi · Gas</text>
  <rect x="410" y="284" width="68" height="16" rx="4" fill="#2563EB"/>
  <text x="444" y="295" text-anchor="middle" font-family="system-ui,sans-serif" font-size="6.5" font-weight="600" fill="white">View Details</text>

  <!-- Browse section tabs -->
  <rect x="0" y="316" width="600" height="12" fill="#ffffff"/>
  <text x="30" y="326" font-family="system-ui,sans-serif" font-size="8" font-weight="700" fill="#1e293b">Browse Our Inventory</text>
  <rect x="0" y="330" width="600" height="18" fill="#ffffff"/>
  <rect x="30" y="332" width="64" height="14" rx="7" fill="#2563EB"/>
  <text x="62" y="342" text-anchor="middle" font-family="system-ui,sans-serif" font-size="6" font-weight="600" fill="white">All Vehicles 215</text>
  <rect x="100" y="332" width="44" height="14" rx="7" fill="#f1f5f9" stroke="#e2e8f0" stroke-width="0.5"/>
  <text x="122" y="342" text-anchor="middle" font-family="system-ui,sans-serif" font-size="6" font-weight="500" fill="#64748b">SUVs 83</text>
  <rect x="150" y="332" width="52" height="14" rx="7" fill="#f1f5f9" stroke="#e2e8f0" stroke-width="0.5"/>
  <text x="176" y="342" text-anchor="middle" font-family="system-ui,sans-serif" font-size="6" font-weight="500" fill="#64748b">Sedans 74</text>
  <rect x="208" y="332" width="52" height="14" rx="7" fill="#f1f5f9" stroke="#e2e8f0" stroke-width="0.5"/>
  <text x="234" y="342" text-anchor="middle" font-family="system-ui,sans-serif" font-size="6" font-weight="500" fill="#64748b">Coupes 17</text>

  <!-- Why Choose Us section -->
  <rect x="0" y="352" width="600" height="48" fill="#f8fafc"/>
  <text x="300" y="366" text-anchor="middle" font-family="system-ui,sans-serif" font-size="8" font-weight="700" fill="#1e293b">Why Choose Us</text>

  <!-- Feature 1: Quality -->
  <rect x="42" y="372" width="150" height="22" rx="6" fill="#ffffff" stroke="#e2e8f0" stroke-width="0.5" filter="url(#card-shadow)"/>
  <circle cx="58" cy="383" r="7" fill="#eff6ff"/>
  <text x="58" y="386" text-anchor="middle" font-family="system-ui,sans-serif" font-size="7" fill="#2563EB">&#10003;</text>
  <text x="72" y="381" font-family="system-ui,sans-serif" font-size="6" font-weight="600" fill="#1e293b">Quality Vehicles</text>
  <text x="72" y="389" font-family="system-ui,sans-serif" font-size="5" fill="#94a3b8">Inspected &amp; certified</text>

  <!-- Feature 2: Financing -->
  <rect x="225" y="372" width="150" height="22" rx="6" fill="#ffffff" stroke="#e2e8f0" stroke-width="0.5" filter="url(#card-shadow)"/>
  <circle cx="241" cy="383" r="7" fill="#eff6ff"/>
  <text x="241" y="386" text-anchor="middle" font-family="system-ui,sans-serif" font-size="7" fill="#2563EB">$</text>
  <text x="255" y="381" font-family="system-ui,sans-serif" font-size="6" font-weight="600" fill="#1e293b">Financing Made Easy</text>
  <text x="255" y="389" font-family="system-ui,sans-serif" font-size="5" fill="#94a3b8">Flexible payment plans</text>

  <!-- Feature 3: Top Rated -->
  <rect x="408" y="372" width="150" height="22" rx="6" fill="#ffffff" stroke="#e2e8f0" stroke-width="0.5" filter="url(#card-shadow)"/>
  <circle cx="424" cy="383" r="7" fill="#eff6ff"/>
  <text x="424" y="386" text-anchor="middle" font-family="system-ui,sans-serif" font-size="7" fill="#f59e0b">&#9733;</text>
  <text x="438" y="381" font-family="system-ui,sans-serif" font-size="6" font-weight="600" fill="#1e293b">Top Rated Dealership</text>
  <text x="438" y="389" font-family="system-ui,sans-serif" font-size="5" fill="#94a3b8">5-star customer reviews</text>
</svg>