<svg xmlns="http://www.w3.org/2000/svg" viewBox="0 0 800 500" fill="none">
  <defs>
    <linearGradient id="sidebar-bg" x1="0" y1="0" x2="0" y2="500" gradientUnits="userSpaceOnUse">
      <stop offset="0%" stop-color="#0f172a"/>
      <stop offset="100%" stop-color="#1e293b"/>
    </linearGradient>
    <filter id="ds" x="-2%" y="-2%" width="104%" height="108%">
      <feDropShadow dx="0" dy="1" stdDeviation="3" flood-color="#000" flood-opacity="0.08"/>
    </filter>
  </defs>

  <!-- Background -->
  <rect width="800" height="500" rx="12" fill="#f1f5f9"/>

  <!-- Sidebar -->
  <rect width="160" height="500" rx="12" fill="url(#sidebar-bg)"/>
  <rect x="12" y="500" width="148" height="0" fill="#0f172a"/>
  <!-- Cover right corners of sidebar -->
  <rect x="148" y="0" width="12" height="500" fill="#0f172a"/>

  <!-- Logo -->
  <rect x="20" y="18" width="28" height="28" rx="7" fill="#2563EB"/>
  <text x="34" y="37" text-anchor="middle" font-family="system-ui,sans-serif" font-size="14" font-weight="700" fill="white">A</text>
  <text x="58" y="37" font-family="system-ui,sans-serif" font-size="13" font-weight="700" fill="white">AutoPulse</text>

  <!-- Sidebar nav items -->
  <!-- Active item -->
  <rect x="10" y="72" width="140" height="32" rx="8" fill="rgba(37,99,235,0.2)"/>
  <rect x="10" y="72" width="3" height="32" rx="1.5" fill="#2563EB"/>
  <!-- Dashboard icon -->
  <rect x="24" y="80" width="14" height="14" rx="3" fill="none" stroke="#60a5fa" stroke-width="1.5"/>
  <line x1="24" y1="87" x2="38" y2="87" stroke="#60a5fa" stroke-width="1"/>
  <line x1="31" y1="80" x2="31" y2="94" stroke="#60a5fa" stroke-width="1"/>
  <text x="48" y="92" font-family="system-ui,sans-serif" font-size="11" font-weight="600" fill="#60a5fa">Dashboard</text>

  <!-- Accounts -->
  <rect x="24" y="118" width="14" height="14" rx="7" fill="none" stroke="rgba(255,255,255,0.4)" stroke-width="1.5"/>
  <text x="48" y="130" font-family="system-ui,sans-serif" font-size="11" font-weight="400" fill="rgba(255,255,255,0.5)">Accounts</text>

  <!-- Leads -->
  <rect x="26" y="152" width="10" height="12" rx="2" fill="none" stroke="rgba(255,255,255,0.4)" stroke-width="1.5"/>
  <line x1="28" y1="156" x2="34" y2="156" stroke="rgba(255,255,255,0.4)" stroke-width="1"/>
  <line x1="28" y1="160" x2="33" y2="160" stroke="rgba(255,255,255,0.4)" stroke-width="1"/>
  <text x="48" y="164" font-family="system-ui,sans-serif" font-size="11" font-weight="400" fill="rgba(255,255,255,0.5)">Leads</text>

  <!-- Calendar -->
  <rect x="25" y="186" width="12" height="12" rx="2" fill="none" stroke="rgba(255,255,255,0.4)" stroke-width="1.5"/>
  <line x1="25" y1="191" x2="37" y2="191" stroke="rgba(255,255,255,0.4)" stroke-width="1"/>
  <text x="48" y="198" font-family="system-ui,sans-serif" font-size="11" font-weight="400" fill="rgba(255,255,255,0.5)">Calendar</text>

  <!-- Messages -->
  <rect x="24" y="220" width="14" height="10" rx="3" fill="none" stroke="rgba(255,255,255,0.4)" stroke-width="1.5"/>
  <text x="48" y="232" font-family="system-ui,sans-serif" font-size="11" font-weight="400" fill="rgba(255,255,255,0.5)">Messages</text>
  <circle cx="130" cy="228" r="7" fill="#ef4444"/>
  <text x="130" y="231" text-anchor="middle" font-family="system-ui,sans-serif" font-size="7" font-weight="700" fill="white">3</text>

  <!-- Reporting -->
  <text x="48" y="264" font-family="system-ui,sans-serif" font-size="11" font-weight="400" fill="rgba(255,255,255,0.5)">Reporting</text>

  <!-- Settings -->
  <text x="48" y="298" font-family="system-ui,sans-serif" font-size="11" font-weight="400" fill="rgba(255,255,255,0.5)">Settings</text>

  <!-- Sidebar bottom user -->
  <rect x="10" y="454" width="140" height="36" rx="8" fill="rgba(255,255,255,0.05)"/>
  <circle cx="30" cy="472" r="12" fill="#3b82f6"/>
  <text x="30" y="476" text-anchor="middle" font-family="system-ui,sans-serif" font-size="10" font-weight="600" fill="white">JD</text>
  <text x="50" y="468" font-family="system-ui,sans-serif" font-size="9" font-weight="600" fill="rgba(255,255,255,0.8)">John Doe</text>
  <text x="50" y="480" font-family="system-ui,sans-serif" font-size="8" fill="rgba(255,255,255,0.4)">Admin</text>

  <!-- Main content area -->
  <!-- Top bar -->
  <rect x="160" y="0" width="640" height="52" fill="#ffffff"/>
  <line x1="160" y1="52" x2="800" y2="52" stroke="#e2e8f0" stroke-width="1"/>
  <text x="184" y="32" font-family="system-ui,sans-serif" font-size="16" font-weight="700" fill="#0f172a">Account Management</text>
  <!-- Search bar -->
  <rect x="420" y="14" width="200" height="28" rx="8" fill="#f8fafc" stroke="#e2e8f0" stroke-width="1"/>
  <text x="436" y="32" font-family="system-ui,sans-serif" font-size="10" fill="#94a3b8">Search accounts...</text>
  <!-- Add button -->
  <rect x="640" y="14" width="90" height="28" rx="8" fill="#2563EB"/>
  <text x="685" y="33" text-anchor="middle" font-family="system-ui,sans-serif" font-size="10" font-weight="600" fill="white">+ Add Account</text>
  <!-- Notification bell -->
  <circle cx="760" cy="28" r="14" fill="#f8fafc" stroke="#e2e8f0" stroke-width="1"/>
  <text x="760" y="33" text-anchor="middle" font-family="system-ui,sans-serif" font-size="12" fill="#64748b">&#128276;</text>

  <!-- Filter tabs -->
  <rect x="184" y="64" width="60" height="26" rx="6" fill="#2563EB"/>
  <text x="214" y="81" text-anchor="middle" font-family="system-ui,sans-serif" font-size="10" font-weight="600" fill="white">Active</text>
  <rect x="252" y="64" width="64" height="26" rx="6" fill="#f8fafc" stroke="#e2e8f0" stroke-width="1"/>
  <text x="284" y="81" text-anchor="middle" font-family="system-ui,sans-serif" font-size="10" font-weight="500" fill="#64748b">Inactive</text>
  <rect x="324" y="64" width="86" height="26" rx="6" fill="#f8fafc" stroke="#e2e8f0" stroke-width="1"/>
  <text x="367" y="81" text-anchor="middle" font-family="system-ui,sans-serif" font-size="10" font-weight="500" fill="#64748b">All Accounts</text>

  <!-- Data table -->
  <rect x="174" y="102" width="420" height="388" rx="10" fill="#ffffff" filter="url(#ds)"/>

  <!-- Table header -->
  <rect x="174" y="102" width="420" height="30" rx="10" fill="#f8fafc"/>
  <rect x="174" y="122" width="420" height="10" fill="#f8fafc"/>
  <text x="192" y="121" font-family="system-ui,sans-serif" font-size="9" font-weight="600" fill="#64748b">ID</text>
  <text x="230" y="121" font-family="system-ui,sans-serif" font-size="9" font-weight="600" fill="#64748b">Name</text>
  <text x="340" y="121" font-family="system-ui,sans-serif" font-size="9" font-weight="600" fill="#64748b">Status</text>
  <text x="400" y="121" font-family="system-ui,sans-serif" font-size="9" font-weight="600" fill="#64748b">Tier</text>
  <text x="450" y="121" font-family="system-ui,sans-serif" font-size="9" font-weight="600" fill="#64748b">Revenue</text>
  <text x="530" y="121" font-family="system-ui,sans-serif" font-size="9" font-weight="600" fill="#64748b">Actions</text>

  <!-- Row 1 -->
  <line x1="184" y1="156" x2="584" y2="156" stroke="#f1f5f9" stroke-width="1"/>
  <text x="192" y="149" font-family="system-ui,sans-serif" font-size="9" fill="#64748b">#1024</text>
  <text x="230" y="149" font-family="system-ui,sans-serif" font-size="9" font-weight="500" fill="#0f172a">Johnson Motors</text>
  <rect x="340" y="139" width="40" height="16" rx="8" fill="#dcfce7"/>
  <text x="360" y="150" text-anchor="middle" font-family="system-ui,sans-serif" font-size="8" font-weight="600" fill="#16a34a">Active</text>
  <text x="400" y="149" font-family="system-ui,sans-serif" font-size="9" fill="#64748b">Premium</text>
  <text x="450" y="149" font-family="system-ui,sans-serif" font-size="9" font-weight="500" fill="#0f172a">$48,200</text>
  <circle cx="537" cy="146" r="2" fill="#94a3b8"/>
  <circle cx="544" cy="146" r="2" fill="#94a3b8"/>
  <circle cx="551" cy="146" r="2" fill="#94a3b8"/>

  <!-- Row 2 -->
  <line x1="184" y1="184" x2="584" y2="184" stroke="#f1f5f9" stroke-width="1"/>
  <text x="192" y="177" font-family="system-ui,sans-serif" font-size="9" fill="#64748b">#1025</text>
  <text x="230" y="177" font-family="system-ui,sans-serif" font-size="9" font-weight="500" fill="#0f172a">Riverside Auto</text>
  <rect x="340" y="167" width="40" height="16" rx="8" fill="#dcfce7"/>
  <text x="360" y="178" text-anchor="middle" font-family="system-ui,sans-serif" font-size="8" font-weight="600" fill="#16a34a">Active</text>
  <text x="400" y="177" font-family="system-ui,sans-serif" font-size="9" fill="#64748b">Standard</text>
  <text x="450" y="177" font-family="system-ui,sans-serif" font-size="9" font-weight="500" fill="#0f172a">$32,100</text>
  <circle cx="537" cy="174" r="2" fill="#94a3b8"/>
  <circle cx="544" cy="174" r="2" fill="#94a3b8"/>
  <circle cx="551" cy="174" r="2" fill="#94a3b8"/>

  <!-- Row 3 -->
  <line x1="184" y1="212" x2="584" y2="212" stroke="#f1f5f9" stroke-width="1"/>
  <text x="192" y="205" font-family="system-ui,sans-serif" font-size="9" fill="#64748b">#1026</text>
  <text x="230" y="205" font-family="system-ui,sans-serif" font-size="9" font-weight="500" fill="#0f172a">Premier Wheels</text>
  <rect x="340" y="195" width="40" height="16" rx="8" fill="#fef9c3"/>
  <text x="360" y="206" text-anchor="middle" font-family="system-ui,sans-serif" font-size="8" font-weight="600" fill="#ca8a04">Pending</text>
  <text x="400" y="205" font-family="system-ui,sans-serif" font-size="9" fill="#64748b">Premium</text>
  <text x="450" y="205" font-family="system-ui,sans-serif" font-size="9" font-weight="500" fill="#0f172a">$51,800</text>
  <circle cx="537" cy="202" r="2" fill="#94a3b8"/>
  <circle cx="544" cy="202" r="2" fill="#94a3b8"/>
  <circle cx="551" cy="202" r="2" fill="#94a3b8"/>

  <!-- Row 4 -->
  <line x1="184" y1="240" x2="584" y2="240" stroke="#f1f5f9" stroke-width="1"/>
  <text x="192" y="233" font-family="system-ui,sans-serif" font-size="9" fill="#64748b">#1027</text>
  <text x="230" y="233" font-family="system-ui,sans-serif" font-size="9" font-weight="500" fill="#0f172a">City Auto Group</text>
  <rect x="340" y="223" width="40" height="16" rx="8" fill="#dcfce7"/>
  <text x="360" y="234" text-anchor="middle" font-family="system-ui,sans-serif" font-size="8" font-weight="600" fill="#16a34a">Active</text>
  <text x="400" y="233" font-family="system-ui,sans-serif" font-size="9" fill="#64748b">Enterprise</text>
  <text x="450" y="233" font-family="system-ui,sans-serif" font-size="9" font-weight="500" fill="#0f172a">$87,500</text>
  <circle cx="537" cy="230" r="2" fill="#94a3b8"/>
  <circle cx="544" cy="230" r="2" fill="#94a3b8"/>
  <circle cx="551" cy="230" r="2" fill="#94a3b8"/>

  <!-- Row 5 -->
  <line x1="184" y1="268" x2="584" y2="268" stroke="#f1f5f9" stroke-width="1"/>
  <text x="192" y="261" font-family="system-ui,sans-serif" font-size="9" fill="#64748b">#1028</text>
  <text x="230" y="261" font-family="system-ui,sans-serif" font-size="9" font-weight="500" fill="#0f172a">Valley Motors</text>
  <rect x="340" y="251" width="44" height="16" rx="8" fill="#fee2e2"/>
  <text x="362" y="262" text-anchor="middle" font-family="system-ui,sans-serif" font-size="8" font-weight="600" fill="#dc2626">Inactive</text>
  <text x="400" y="261" font-family="system-ui,sans-serif" font-size="9" fill="#64748b">Standard</text>
  <text x="450" y="261" font-family="system-ui,sans-serif" font-size="9" font-weight="500" fill="#0f172a">$12,400</text>
  <circle cx="537" cy="258" r="2" fill="#94a3b8"/>
  <circle cx="544" cy="258" r="2" fill="#94a3b8"/>
  <circle cx="551" cy="258" r="2" fill="#94a3b8"/>

  <!-- Row 6 -->
  <line x1="184" y1="296" x2="584" y2="296" stroke="#f1f5f9" stroke-width="1"/>
  <text x="192" y="289" font-family="system-ui,sans-serif" font-size="9" fill="#64748b">#1029</text>
  <text x="230" y="289" font-family="system-ui,sans-serif" font-size="9" font-weight="500" fill="#0f172a">Summit Auto Sales</text>
  <rect x="340" y="279" width="40" height="16" rx="8" fill="#dcfce7"/>
  <text x="360" y="290" text-anchor="middle" font-family="system-ui,sans-serif" font-size="8" font-weight="600" fill="#16a34a">Active</text>
  <text x="400" y="289" font-family="system-ui,sans-serif" font-size="9" fill="#64748b">Premium</text>
  <text x="450" y="289" font-family="system-ui,sans-serif" font-size="9" font-weight="500" fill="#0f172a">$62,300</text>
  <circle cx="537" cy="286" r="2" fill="#94a3b8"/>
  <circle cx="544" cy="286" r="2" fill="#94a3b8"/>
  <circle cx="551" cy="286" r="2" fill="#94a3b8"/>

  <!-- Pagination -->
  <text x="192" y="470" font-family="system-ui,sans-serif" font-size="9" fill="#94a3b8">Showing 1-6 of 24</text>
  <rect x="490" y="458" width="24" height="20" rx="5" fill="#f8fafc" stroke="#e2e8f0" stroke-width="1"/>
  <text x="502" y="472" text-anchor="middle" font-family="system-ui,sans-serif" font-size="9" fill="#64748b">‹</text>
  <rect x="518" y="458" width="24" height="20" rx="5" fill="#2563EB"/>
  <text x="530" y="472" text-anchor="middle" font-family="system-ui,sans-serif" font-size="9" font-weight="600" fill="white">1</text>
  <rect x="546" y="458" width="24" height="20" rx="5" fill="#f8fafc" stroke="#e2e8f0" stroke-width="1"/>
  <text x="558" y="472" text-anchor="middle" font-family="system-ui,sans-serif" font-size="9" fill="#64748b">2</text>
  <rect x="574" y="458" width="24" height="20" rx="5" fill="#f8fafc" stroke="#e2e8f0" stroke-width="1"/>
  <text x="586" y="472" text-anchor="middle" font-family="system-ui,sans-serif" font-size="9" fill="#64748b">›</text>

  <!-- Right panel - Account details -->
  <rect x="604" y="62" width="186" height="428" rx="10" fill="#ffffff" filter="url(#ds)"/>

  <!-- Account detail header -->
  <text x="618" y="86" font-family="system-ui,sans-serif" font-size="11" font-weight="700" fill="#0f172a">Account Details</text>
  <line x1="614" y1="96" x2="780" y2="96" stroke="#f1f5f9" stroke-width="1"/>

  <!-- Account info -->
  <circle cx="640" cy="118" r="16" fill="#eff6ff"/>
  <text x="640" y="123" text-anchor="middle" font-family="system-ui,sans-serif" font-size="12" font-weight="700" fill="#2563EB">JM</text>
  <text x="664" y="114" font-family="system-ui,sans-serif" font-size="10" font-weight="600" fill="#0f172a">Johnson Motors</text>
  <text x="664" y="126" font-family="system-ui,sans-serif" font-size="8" fill="#94a3b8">Premium · Since 2022</text>

  <!-- Stats -->
  <rect x="614" y="142" width="80" height="44" rx="6" fill="#f8fafc"/>
  <text x="624" y="158" font-family="system-ui,sans-serif" font-size="8" fill="#94a3b8">Monthly</text>
  <text x="624" y="175" font-family="system-ui,sans-serif" font-size="13" font-weight="700" fill="#0f172a">$4,200</text>

  <rect x="700" y="142" width="80" height="44" rx="6" fill="#f8fafc"/>
  <text x="710" y="158" font-family="system-ui,sans-serif" font-size="8" fill="#94a3b8">Leads</text>
  <text x="710" y="175" font-family="system-ui,sans-serif" font-size="13" font-weight="700" fill="#0f172a">342</text>

  <!-- Payment History -->
  <text x="618" y="206" font-family="system-ui,sans-serif" font-size="10" font-weight="600" fill="#0f172a">Payment History</text>

  <!-- Payment rows -->
  <rect x="614" y="214" width="166" height="28" rx="5" fill="#f8fafc"/>
  <text x="622" y="228" font-family="system-ui,sans-serif" font-size="8" fill="#64748b">Jan 2025</text>
  <text x="700" y="228" font-family="system-ui,sans-serif" font-size="8" font-weight="600" fill="#0f172a">$4,200</text>
  <rect x="745" y="222" width="26" height="12" rx="6" fill="#dcfce7"/>
  <text x="758" y="231" text-anchor="middle" font-family="system-ui,sans-serif" font-size="7" font-weight="600" fill="#16a34a">Paid</text>

  <rect x="614" y="246" width="166" height="28" rx="5" fill="#ffffff"/>
  <text x="622" y="260" font-family="system-ui,sans-serif" font-size="8" fill="#64748b">Dec 2024</text>
  <text x="700" y="260" font-family="system-ui,sans-serif" font-size="8" font-weight="600" fill="#0f172a">$4,200</text>
  <rect x="745" y="254" width="26" height="12" rx="6" fill="#dcfce7"/>
  <text x="758" y="263" text-anchor="middle" font-family="system-ui,sans-serif" font-size="7" font-weight="600" fill="#16a34a">Paid</text>

  <rect x="614" y="278" width="166" height="28" rx="5" fill="#f8fafc"/>
  <text x="622" y="292" font-family="system-ui,sans-serif" font-size="8" fill="#64748b">Nov 2024</text>
  <text x="700" y="292" font-family="system-ui,sans-serif" font-size="8" font-weight="600" fill="#0f172a">$4,200</text>
  <rect x="745" y="286" width="26" height="12" rx="6" fill="#dcfce7"/>
  <text x="758" y="295" text-anchor="middle" font-family="system-ui,sans-serif" font-size="7" font-weight="600" fill="#16a34a">Paid</text>

  <!-- Monthly Billing chart -->
  <text x="618" y="328" font-family="system-ui,sans-serif" font-size="10" font-weight="600" fill="#0f172a">Monthly Billing</text>

  <!-- Mini bar chart -->
  <rect x="620" y="396" width="18" height="50" rx="3" fill="#dbeafe"/>
  <rect x="620" y="412" width="18" height="34" rx="3" fill="#2563EB"/>
  <text x="629" y="458" text-anchor="middle" font-family="system-ui,sans-serif" font-size="7" fill="#94a3b8">Jul</text>

  <rect x="644" y="396" width="18" height="50" rx="3" fill="#dbeafe"/>
  <rect x="644" y="404" width="18" height="42" rx="3" fill="#2563EB"/>
  <text x="653" y="458" text-anchor="middle" font-family="system-ui,sans-serif" font-size="7" fill="#94a3b8">Aug</text>

  <rect x="668" y="396" width="18" height="50" rx="3" fill="#dbeafe"/>
  <rect x="668" y="416" width="18" height="30" rx="3" fill="#2563EB"/>
  <text x="677" y="458" text-anchor="middle" font-family="system-ui,sans-serif" font-size="7" fill="#94a3b8">Sep</text>

  <rect x="692" y="396" width="18" height="50" rx="3" fill="#dbeafe"/>
  <rect x="692" y="400" width="18" height="46" rx="3" fill="#2563EB"/>
  <text x="701" y="458" text-anchor="middle" font-family="system-ui,sans-serif" font-size="7" fill="#94a3b8">Oct</text>

  <rect x="716" y="396" width="18" height="50" rx="3" fill="#dbeafe"/>
  <rect x="716" y="408" width="18" height="38" rx="3" fill="#2563EB"/>
  <text x="725" y="458" text-anchor="middle" font-family="system-ui,sans-serif" font-size="7" fill="#94a3b8">Nov</text>

  <rect x="740" y="396" width="18" height="50" rx="3" fill="#dbeafe"/>
  <rect x="740" y="396" width="18" height="50" rx="3" fill="#3b82f6"/>
  <text x="749" y="458" text-anchor="middle" font-family="system-ui,sans-serif" font-size="7" fill="#94a3b8">Dec</text>
</svg>