<svg xmlns="http://www.w3.org/2000/svg" viewBox="0 0 900 400" fill="none">
  <defs>
    <linearGradient id="cb3-deep" x1="0%" y1="0%" x2="100%" y2="100%">
      <stop offset="0%" style="stop-color:#0c0c0c"/>
      <stop offset="35%" style="stop-color:#140808"/>
      <stop offset="70%" style="stop-color:#0a0506"/>
      <stop offset="100%" style="stop-color:#080808"/>
    </linearGradient>
    <linearGradient id="cb3-wave" x1="0%" y1="50%" x2="100%" y2="50%">
      <stop offset="0%" style="stop-color:transparent"/>
      <stop offset="30%" style="stop-color:#2563EB;stop-opacity:0.4"/>
      <stop offset="50%" style="stop-color:#B91C1C;stop-opacity:0.25"/>
      <stop offset="70%" style="stop-color:#2563EB;stop-opacity:0.35"/>
      <stop offset="100%" style="stop-color:transparent"/>
    </linearGradient>
    <radialGradient id="cb3-spot1" cx="10%" cy="20%" r="70%">
      <stop offset="0%" style="stop-color:#2563EB;stop-opacity:0.45"/>
      <stop offset="70%" style="stop-color:#991B1B;stop-opacity:0.1"/>
      <stop offset="100%" style="stop-color:transparent"/>
    </radialGradient>
    <radialGradient id="cb3-spot2" cx="90%" cy="75%" r="60%">
      <stop offset="0%" style="stop-color:#B91C1C;stop-opacity:0.4"/>
      <stop offset="100%" style="stop-color:transparent"/>
    </radialGradient>
    <radialGradient id="cb3-orb" cx="50%" cy="50%" r="50%">
      <stop offset="0%" style="stop-color:#2563EB;stop-opacity:0.5"/>
      <stop offset="100%" style="stop-color:#2563EB;stop-opacity:0"/>
    </radialGradient>
    <pattern id="cb3-mesh" width="60" height="60" patternUnits="userSpaceOnUse">
      <path d="M0 30 L60 30 M30 0 L30 60" stroke="rgba(37,99,235,0.06)" stroke-width="0.6"/>
      <circle cx="30" cy="30" r="1.5" fill="#2563EB" opacity="0.12"/>
    </pattern>
    <pattern id="cb3-hex" width="52" height="30" patternUnits="userSpaceOnUse">
      <path d="M26 0 L52 15 L52 45 L26 60 L0 45 L0 15 Z" fill="none" stroke="rgba(37,99,235,0.08)" stroke-width="0.5"/>
    </pattern>
    <filter id="cb3-glow" x="-50%" y="-50%" width="200%" height="200%">
      <feGaussianBlur in="SourceGraphic" stdDeviation="2"/>
      <feColorMatrix type="matrix" values="1 0 0 0 0  0 0 0 0 0  0 0 0 0 0  0 0 0 0.6 0"/>
      <feBlend in="SourceGraphic" in2="blur"/>
    </filter>
  </defs>
  <!-- Base -->
  <rect width="900" height="400" fill="url(#cb3-deep)"/>
  <!-- Mesh + hex overlay -->
  <rect width="900" height="400" fill="url(#cb3-mesh)"/>
  <rect width="900" height="400" fill="url(#cb3-hex)" opacity="0.7"/>
  <!-- Wave band -->
  <ellipse cx="450" cy="200" rx="550" ry="180" fill="url(#cb3-wave)"/>
  <!-- Spots -->
  <rect width="900" height="400" fill="url(#cb3-spot1)"/>
  <rect width="900" height="400" fill="url(#cb3-spot2)"/>
  <!-- Floating orbs -->
  <circle cx="140" cy="100" r="90" fill="url(#cb3-orb)"/>
  <circle cx="760" cy="300" r="70" fill="url(#cb3-orb)"/>
  <circle cx="450" cy="200" r="45" fill="rgba(37,99,235,0.12)"/>
  <!-- Isometric / 3D-style blocks -->
  <path d="M0 400 L0 200 L80 160 L80 360 Z" fill="#2563EB" opacity="0.12"/>
  <path d="M900 0 L900 180 L820 220 L820 40 Z" fill="#2563EB" opacity="0.1"/>
  <!-- Flowing curves -->
  <path d="M-20 120 Q200 80 450 140 T920 100" stroke="rgba(37,99,235,0.22)" stroke-width="2.5" fill="none" stroke-dasharray="16 20" stroke-linecap="round"/>
  <path d="M-20 280 Q350 320 500 260 T920 300" stroke="rgba(37,99,235,0.18)" stroke-width="1.5" fill="none" stroke-dasharray="12 16"/>
  <!-- Bold accent bars -->
  <rect x="0" y="0" width="8" height="400" fill="#2563EB" opacity="0.55"/>
  <rect x="0" y="340" width="320" height="4" fill="#2563EB" opacity="0.4"/>
  <rect x="580" y="0" width="4" height="120" fill="#2563EB" opacity="0.45"/>
  <rect x="750" y="60" width="150" height="3" fill="#2563EB" opacity="0.35"/>
  <!-- Ring accent -->
  <circle cx="700" cy="120" r="50" fill="none" stroke="rgba(37,99,235,0.25)" stroke-width="1.5"/>
  <circle cx="700" cy="120" r="36" fill="none" stroke="rgba(37,99,235,0.15)" stroke-width="1"/>
  <!-- Corner L-shapes -->
  <path d="M0 0 L0 80 L6 80 L6 6 L80 6 L80 0 Z" fill="#2563EB" opacity="0.25"/>
  <path d="M900 400 L900 320 L894 320 L894 394 L820 394 L820 400 Z" fill="#2563EB" opacity="0.25"/>
  <!-- Small bokeh -->
  <circle cx="260" cy="280" r="8" fill="rgba(37,99,235,0.2)"/>
  <circle cx="620" cy="80" r="6" fill="rgba(37,99,235,0.25)"/>
  <circle cx="380" cy="320" r="5" fill="rgba(37,99,235,0.15)"/>
</svg>
