<svg xmlns="http://www.w3.org/2000/svg" viewBox="0 0 600 400" fill="none">
  <defs>
    <linearGradient id="bg-grad" x1="0" y1="0" x2="600" y2="400" gradientUnits="userSpaceOnUse">
      <stop offset="0%" stop-color="#f8fafc"/>
      <stop offset="100%" stop-color="#e2e8f0"/>
    </linearGradient>
    <linearGradient id="blue-grad" x1="0" y1="0" x2="0" y2="1">
      <stop offset="0%" stop-color="#2563EB"/>
      <stop offset="100%" stop-color="#1D4ED8"/>
    </linearGradient>
    <filter id="card-shadow" x="-4%" y="-4%" width="108%" height="116%">
      <feDropShadow dx="0" dy="2" stdDeviation="6" flood-color="#0f172a" flood-opacity="0.08"/>
    </filter>
    <filter id="soft-shadow" x="-4%" y="-4%" width="108%" height="112%">
      <feDropShadow dx="0" dy="1" stdDeviation="3" flood-color="#0f172a" flood-opacity="0.06"/>
    </filter>
  </defs>

  <!-- Background -->
  <rect width="600" height="400" rx="16" fill="url(#bg-grad)"/>

  <!-- Dashboard header bar -->
  <rect x="24" y="20" width="552" height="44" rx="10" fill="#0f172a" filter="url(#card-shadow)"/>
  <circle cx="48" cy="42" r="6" fill="#2563EB"/>
  <rect x="62" y="36" width="80" height="12" rx="3" fill="rgba(255,255,255,0.8)"/>
  <text x="66" y="46" font-family="system-ui,sans-serif" font-size="10" font-weight="600" fill="#0f172a">CRM Pipeline</text>
  <circle cx="540" cy="42" r="10" fill="rgba(255,255,255,0.15)"/>
  <circle cx="512" cy="42" r="10" fill="rgba(255,255,255,0.15)"/>

  <!-- Pipeline stage headers -->
  <rect x="24" y="76" width="128" height="32" rx="8" fill="#2563EB" opacity="0.1"/>
  <text x="88" y="96" text-anchor="middle" font-family="system-ui,sans-serif" font-size="11" font-weight="600" fill="#2563EB">New Leads</text>

  <rect x="164" y="76" width="128" height="32" rx="8" fill="#2563EB" opacity="0.1"/>
  <text x="228" y="96" text-anchor="middle" font-family="system-ui,sans-serif" font-size="11" font-weight="600" fill="#2563EB">Contacted</text>

  <rect x="304" y="76" width="128" height="32" rx="8" fill="#f59e0b" opacity="0.15"/>
  <text x="368" y="96" text-anchor="middle" font-family="system-ui,sans-serif" font-size="11" font-weight="600" fill="#d97706">Appointments</text>

  <rect x="448" y="76" width="128" height="32" rx="8" fill="#10b981" opacity="0.15"/>
  <text x="512" y="96" text-anchor="middle" font-family="system-ui,sans-serif" font-size="11" font-weight="600" fill="#059669">Deals Won</text>

  <!-- Stage counts -->
  <text x="88" y="128" text-anchor="middle" font-family="system-ui,sans-serif" font-size="22" font-weight="700" fill="#0f172a">24</text>
  <text x="228" y="128" text-anchor="middle" font-family="system-ui,sans-serif" font-size="22" font-weight="700" fill="#0f172a">18</text>
  <text x="368" y="128" text-anchor="middle" font-family="system-ui,sans-serif" font-size="22" font-weight="700" fill="#0f172a">12</text>
  <text x="512" y="128" text-anchor="middle" font-family="system-ui,sans-serif" font-size="22" font-weight="700" fill="#0f172a">8</text>

  <!-- Lead cards column 1 -->
  <rect x="24" y="144" width="128" height="58" rx="8" fill="white" filter="url(#soft-shadow)"/>
  <circle cx="44" cy="162" r="8" fill="#2563EB" opacity="0.2"/>
  <text x="44" y="165" text-anchor="middle" font-family="system-ui,sans-serif" font-size="8" font-weight="600" fill="#2563EB">JD</text>
  <rect x="58" y="156" width="72" height="8" rx="2" fill="#0f172a" opacity="0.7"/>
  <rect x="58" y="169" width="50" height="6" rx="2" fill="#64748b" opacity="0.4"/>
  <rect x="34" y="184" width="50" height="10" rx="5" fill="#2563EB" opacity="0.1"/>
  <text x="59" y="192" text-anchor="middle" font-family="system-ui,sans-serif" font-size="7" font-weight="600" fill="#2563EB">Internet</text>
  <circle cx="134" cy="162" r="5" fill="#ef4444" opacity="0.8"/>

  <rect x="24" y="210" width="128" height="58" rx="8" fill="white" filter="url(#soft-shadow)"/>
  <circle cx="44" cy="228" r="8" fill="#10b981" opacity="0.2"/>
  <text x="44" y="231" text-anchor="middle" font-family="system-ui,sans-serif" font-size="8" font-weight="600" fill="#10b981">SM</text>
  <rect x="58" y="222" width="68" height="8" rx="2" fill="#0f172a" opacity="0.7"/>
  <rect x="58" y="235" width="44" height="6" rx="2" fill="#64748b" opacity="0.4"/>
  <rect x="34" y="250" width="48" height="10" rx="5" fill="#10b981" opacity="0.1"/>
  <text x="58" y="258" text-anchor="middle" font-family="system-ui,sans-serif" font-size="7" font-weight="600" fill="#10b981">Walk-in</text>

  <rect x="24" y="276" width="128" height="58" rx="8" fill="white" filter="url(#soft-shadow)"/>
  <circle cx="44" cy="294" r="8" fill="#8b5cf6" opacity="0.2"/>
  <text x="44" y="297" text-anchor="middle" font-family="system-ui,sans-serif" font-size="8" font-weight="600" fill="#8b5cf6">AK</text>
  <rect x="58" y="288" width="74" height="8" rx="2" fill="#0f172a" opacity="0.7"/>
  <rect x="58" y="301" width="52" height="6" rx="2" fill="#64748b" opacity="0.4"/>
  <rect x="34" y="316" width="56" height="10" rx="5" fill="#8b5cf6" opacity="0.1"/>
  <text x="62" y="324" text-anchor="middle" font-family="system-ui,sans-serif" font-size="7" font-weight="600" fill="#8b5cf6">Third-party</text>

  <!-- Lead cards column 2 -->
  <rect x="164" y="144" width="128" height="58" rx="8" fill="white" filter="url(#soft-shadow)"/>
  <circle cx="184" cy="162" r="8" fill="#f59e0b" opacity="0.2"/>
  <text x="184" y="165" text-anchor="middle" font-family="system-ui,sans-serif" font-size="8" font-weight="600" fill="#d97706">TR</text>
  <rect x="198" y="156" width="72" height="8" rx="2" fill="#0f172a" opacity="0.7"/>
  <rect x="198" y="169" width="46" height="6" rx="2" fill="#64748b" opacity="0.4"/>
  <rect x="174" y="184" width="42" height="10" rx="5" fill="#2563EB" opacity="0.1"/>
  <text x="195" y="192" text-anchor="middle" font-family="system-ui,sans-serif" font-size="7" font-weight="600" fill="#2563EB">Email</text>

  <rect x="164" y="210" width="128" height="58" rx="8" fill="white" filter="url(#soft-shadow)"/>
  <circle cx="184" cy="228" r="8" fill="#2563EB" opacity="0.2"/>
  <text x="184" y="231" text-anchor="middle" font-family="system-ui,sans-serif" font-size="8" font-weight="600" fill="#2563EB">KL</text>
  <rect x="198" y="222" width="66" height="8" rx="2" fill="#0f172a" opacity="0.7"/>
  <rect x="198" y="235" width="48" height="6" rx="2" fill="#64748b" opacity="0.4"/>
  <rect x="174" y="250" width="42" height="10" rx="5" fill="#10b981" opacity="0.1"/>
  <text x="195" y="258" text-anchor="middle" font-family="system-ui,sans-serif" font-size="7" font-weight="600" fill="#10b981">SMS</text>

  <!-- Appointment cards column 3 -->
  <rect x="304" y="144" width="128" height="58" rx="8" fill="white" filter="url(#soft-shadow)" stroke="#f59e0b" stroke-width="1" stroke-opacity="0.3"/>
  <circle cx="324" cy="162" r="8" fill="#f59e0b" opacity="0.2"/>
  <text x="324" y="165" text-anchor="middle" font-family="system-ui,sans-serif" font-size="8" font-weight="600" fill="#d97706">BW</text>
  <rect x="338" y="156" width="72" height="8" rx="2" fill="#0f172a" opacity="0.7"/>
  <rect x="338" y="169" width="54" height="6" rx="2" fill="#64748b" opacity="0.4"/>
  <rect x="314" y="184" width="54" height="10" rx="5" fill="#f59e0b" opacity="0.15"/>
  <text x="341" y="192" text-anchor="middle" font-family="system-ui,sans-serif" font-size="7" font-weight="600" fill="#d97706">Tomorrow</text>
  <!-- checkmark -->
  <path d="M410 158 L414 162 L422 154" stroke="#10b981" stroke-width="1.5" fill="none" stroke-linecap="round"/>

  <rect x="304" y="210" width="128" height="58" rx="8" fill="white" filter="url(#soft-shadow)" stroke="#f59e0b" stroke-width="1" stroke-opacity="0.3"/>
  <circle cx="324" cy="228" r="8" fill="#10b981" opacity="0.2"/>
  <text x="324" y="231" text-anchor="middle" font-family="system-ui,sans-serif" font-size="8" font-weight="600" fill="#059669">MP</text>
  <rect x="338" y="222" width="64" height="8" rx="2" fill="#0f172a" opacity="0.7"/>
  <rect x="338" y="235" width="48" height="6" rx="2" fill="#64748b" opacity="0.4"/>
  <rect x="314" y="250" width="40" height="10" rx="5" fill="#10b981" opacity="0.15"/>
  <text x="334" y="258" text-anchor="middle" font-family="system-ui,sans-serif" font-size="7" font-weight="600" fill="#059669">Today</text>

  <!-- Deals won column 4 -->
  <rect x="448" y="144" width="128" height="58" rx="8" fill="white" filter="url(#soft-shadow)" stroke="#10b981" stroke-width="1" stroke-opacity="0.3"/>
  <circle cx="468" cy="162" r="8" fill="#10b981" opacity="0.2"/>
  <text x="468" y="165" text-anchor="middle" font-family="system-ui,sans-serif" font-size="8" font-weight="600" fill="#059669">RJ</text>
  <rect x="482" y="156" width="72" height="8" rx="2" fill="#0f172a" opacity="0.7"/>
  <rect x="482" y="171" width="56" height="6" rx="2" fill="#64748b" opacity="0.4"/>
  <rect x="458" y="184" width="48" height="10" rx="5" fill="#10b981" opacity="0.15"/>
  <text x="482" y="192" text-anchor="middle" font-family="system-ui,sans-serif" font-size="7" font-weight="600" fill="#059669">$28,400</text>

  <rect x="448" y="210" width="128" height="58" rx="8" fill="white" filter="url(#soft-shadow)" stroke="#10b981" stroke-width="1" stroke-opacity="0.3"/>
  <circle cx="468" cy="228" r="8" fill="#10b981" opacity="0.2"/>
  <text x="468" y="231" text-anchor="middle" font-family="system-ui,sans-serif" font-size="8" font-weight="600" fill="#059669">LS</text>
  <rect x="482" y="222" width="66" height="8" rx="2" fill="#0f172a" opacity="0.7"/>
  <rect x="482" y="237" width="48" height="6" rx="2" fill="#64748b" opacity="0.4"/>
  <rect x="458" y="250" width="48" height="10" rx="5" fill="#10b981" opacity="0.15"/>
  <text x="482" y="258" text-anchor="middle" font-family="system-ui,sans-serif" font-size="7" font-weight="600" fill="#059669">$34,200</text>

  <!-- Bottom stats bar -->
  <rect x="24" y="350" width="552" height="36" rx="10" fill="white" filter="url(#soft-shadow)"/>
  <circle cx="44" cy="368" r="5" fill="#10b981"/>
  <text x="54" y="372" font-family="system-ui,sans-serif" font-size="9" font-weight="600" fill="#0f172a">Avg Response: 2.4 min</text>
  <circle cx="200" cy="368" r="5" fill="#2563EB"/>
  <text x="210" y="372" font-family="system-ui,sans-serif" font-size="9" font-weight="600" fill="#0f172a">Show Rate: 78%</text>
  <circle cx="340" cy="368" r="5" fill="#f59e0b"/>
  <text x="350" y="372" font-family="system-ui,sans-serif" font-size="9" font-weight="600" fill="#0f172a">Close Rate: 33%</text>
  <circle cx="478" cy="368" r="5" fill="#8b5cf6"/>
  <text x="488" y="372" font-family="system-ui,sans-serif" font-size="9" font-weight="600" fill="#0f172a">Gross: $4.2K avg</text>
</svg>
